<svg fill="#000000" xmlns="http://www.w3.org/2000/svg"  viewBox="0 0 50 50" width="50px" height="50px"><path d="M 15 5 C 9.4886661 5 5 9.4886661 5 15 L 5 35 C 5 40.511334 9.4886661 45 15 45 L 35 45 C 40.511334 45 45 40.511334 45 35 L 45 15 C 45 9.4886661 40.511334 5 35 5 L 15 5 z M 15 7 L 35 7 C 39.430666 7 43 10.569334 43 15 L 43 35 C 43 39.430666 39.430666 43 35 43 L 15 43 C 10.569334 43 7 39.430666 7 35 L 7 15 C 7 10.569334 10.569334 7 15 7 z M 21.087891 20.949219 C 18.926891 20.949219 17.173828 22.763 17.173828 25 C 17.173828 27.237 18.926891 29.050781 21.087891 29.050781 C 23.248891 29.050781 25 27.237 25 25 C 25 22.763 23.248891 20.949219 21.087891 20.949219 z M 36.087891 20.949219 C 33.926891 20.949219 32.173828 22.763 32.173828 25 C 32.173828 27.237 33.926891 29.050781 36.087891 29.050781 C 38.248891 29.050781 40 27.237 40 25 C 40 22.763 38.248891 20.949219 36.087891 20.949219 z M 10 21.087891 L 12.542969 25.537109 C 12.585969 25.612109 12.607422 25.698156 12.607422 25.785156 L 12.607422 28.412109 C 12.607422 28.688109 12.831422 28.912109 13.107422 28.912109 L 14.064453 28.912109 C 14.340453 28.912109 14.564453 28.688109 14.564453 28.412109 L 14.564453 25.785156 C 14.564453 25.698156 14.587859 25.613109 14.630859 25.537109 L 17.173828 21.087891 L 15.494141 21.087891 C 15.322141 21.087891 15.161312 21.176266 15.070312 21.322266 L 13.587891 23.695312 L 12.103516 21.322266 C 12.012516 21.176266 11.851688 21.087891 11.679688 21.087891 L 10 21.087891 z M 26.804688 21.087891 C 26.528688 21.087891 26.304688 21.311891 26.304688 21.587891 L 26.304688 28.412109 C 26.304688 28.688109 26.528688 28.912109 26.804688 28.912109 L 31.021484 28.912109 C 31.297484 28.912109 31.521484 28.688109 31.521484 28.412109 L 31.521484 27.455078 C 31.521484 27.179078 31.297484 26.955078 31.021484 26.955078 L 28.759766 26.955078 C 28.484766 26.956078 28.261719 26.733031 28.261719 26.457031 L 28.261719 21.587891 C 28.261719 21.311891 28.037719 21.087891 27.761719 21.087891 L 26.804688 21.087891 z M 21.087891 22.763672 C 22.168891 22.763672 23.044922 23.765 23.044922 25 C 23.044922 26.235 22.168891 27.236328 21.087891 27.236328 C 20.006891 27.236328 19.130859 26.235 19.130859 25 C 19.130859 23.765 20.006891 22.763672 21.087891 22.763672 z M 36.087891 22.763672 C 37.168891 22.763672 38.044922 23.765 38.044922 25 C 38.044922 26.235 37.168891 27.236328 36.087891 27.236328 C 35.006891 27.236328 34.130859 26.235 34.130859 25 C 34.130859 23.765 35.006891 22.763672 36.087891 22.763672 z"/></svg>